<svg xmlns="http://www.w3.org/2000/svg" width="486.25" height="72.5" viewBox="0 0 486.25 72.5">
  <defs>
    <style>
      .cls-1 {
        fill: #fff;
        stroke: #fff;
        stroke-width: 0.5px;
        fill-rule: evenodd;
      }
    </style>
  </defs>
  <path id="logo" class="cls-1" d="M126.821,68.376a22.952,22.952,0,0,1-9.915,2.124c-7.627,0-11.55-4.3-11.55-11.274,0-8.115,5.884-16.556,15.527-16.556,5.393,0,9.261,3.05,9.261,8.006,0,6.753-6.592,9.2-17.27,8.931a5.253,5.253,0,0,0,.818,2.723c1.035,1.362,2.832,2.07,5.121,2.07a16.751,16.751,0,0,0,7.463-1.688ZM122.79,50.621c0-1.307-1.09-2.233-2.888-2.233-3.65,0-5.72,3.05-6.265,5.5,6.1,0.055,9.153-.762,9.153-3.213V50.621Zm24.842,2.233-1.089,5.5H132.432l1.09-5.5h14.11ZM149.375,69.9l7.355-38.668h7.79l-4.413,23.146h0.109c0.817-1.035,1.635-2.069,2.4-3l6.81-8.115h9.7l-11.332,11L175.2,69.9h-8.771l-4.685-11.383L158.8,61.35,157.165,69.9h-7.79Zm39.72,0.6c-6.81,0-11.332-4.411-11.332-11,0-9.2,6.429-16.828,15.908-16.828,7.192,0,11.332,4.9,11.332,11,0,9.694-6.7,16.829-15.853,16.829H189.1Zm1.035-5.991c4.25,0,6.7-6.263,6.7-10.784,0-2.505-1.089-5.065-4.195-5.065-4.522,0-6.809,6.535-6.809,10.675,0,3.1,1.579,5.174,4.249,5.174h0.054ZM207.346,69.9l3.05-15.848c0.709-4.03,1.09-8.5,1.363-10.784h6.755c-0.109,1.8-.273,3.594-0.49,5.5h0.217c1.853-3.595,4.795-6.1,8.445-6.1,0.545,0,1.035.054,1.471,0.054L226.632,50.4a8.09,8.09,0,0,0-1.2-.054c-4.958,0-7.355,4.411-8.335,9.64L215.245,69.9h-7.9Zm42.387-1.525a22.952,22.952,0,0,1-9.915,2.124c-7.627,0-11.55-4.3-11.55-11.274,0-8.115,5.884-16.556,15.527-16.556,5.393,0,9.261,3.05,9.261,8.006,0,6.753-6.591,9.2-17.27,8.931a5.253,5.253,0,0,0,.818,2.723c1.035,1.362,2.832,2.07,5.121,2.07a16.751,16.751,0,0,0,7.463-1.688ZM245.7,50.621c0-1.307-1.09-2.233-2.888-2.233-3.65,0-5.72,3.05-6.265,5.5,6.1,0.055,9.153-.762,9.153-3.213V50.621Zm6.864,30.063,5.176-27.122c0.6-3.159,1.2-7.788,1.525-10.511H266.3l-0.49,4.085h0.109a10.775,10.775,0,0,1,8.553-4.466c5.775,0,8.608,4.629,8.608,10.13,0,9.2-6.156,17.7-15.472,17.7a10.519,10.519,0,0,1-4.9-1.089h-0.164l-2.125,11.274h-7.845Zm11.223-17.374a5.218,5.218,0,0,0,3.6,1.253c4.195,0,7.464-5.936,7.464-11.165,0-2.124-.927-4.357-3.432-4.357-2.943,0-5.667,3.268-6.647,8.5Zm44.285,5.065a22.952,22.952,0,0,1-9.915,2.124c-7.628,0-11.55-4.3-11.55-11.274,0-8.115,5.884-16.556,15.526-16.556,5.395,0,9.262,3.05,9.262,8.006,0,6.753-6.592,9.2-17.27,8.931a5.261,5.261,0,0,0,.817,2.723c1.036,1.362,2.834,2.07,5.121,2.07a16.763,16.763,0,0,0,7.465-1.688Zm-4.031-17.755c0-1.307-1.09-2.233-2.888-2.233-3.65,0-5.72,3.05-6.265,5.5,6.1,0.055,9.153-.762,9.153-3.213V50.621Zm24.08-14.541-1.363,7.189h5.72l-1.2,5.991h-5.666l-1.8,8.987a19.787,19.787,0,0,0-.436,3.377,1.981,1.981,0,0,0,2.289,2.233,13.871,13.871,0,0,0,2.124-.109L326.924,69.9a15.941,15.941,0,0,1-4.631.6c-4.74,0-6.973-2.4-6.973-5.773a22.423,22.423,0,0,1,.6-4.9l2.016-10.566h-3.379l1.09-5.991h3.433l0.98-5.01Zm14.316,7.189,1.635,11.6c0.381,2.778.654,4.684,0.871,6.372h0.109c0.6-1.634,1.2-3.377,2.343-6.263l4.849-11.709h8.281l-9.535,19.116c-3.541,7.08-6.7,11.927-10.242,15.25a17.8,17.8,0,0,1-8.553,4.52l-1.743-6.7a15.846,15.846,0,0,0,4.522-2.124,14.691,14.691,0,0,0,4.358-4.629,1.605,1.605,0,0,0,.109-1.253l-5.231-24.181h8.227Zm36.347,25.815a18.342,18.342,0,0,1-7.572,1.416c-6.593,0-11.223-4.03-11.223-10.947,0-9.477,7.245-16.883,17.379-16.883a15.136,15.136,0,0,1,5.448.926l-1.961,5.991a9.029,9.029,0,0,0-3.6-.653c-5.557,0-9.044,4.738-9.044,9.748,0,3.7,2.343,5.555,5.23,5.555a13.444,13.444,0,0,0,5.285-1.089Zm17.706-25.815L391.7,69.03c-0.871,4.575-2.015,7.461-3.759,9.422a9.645,9.645,0,0,1-7.245,2.832,14.755,14.755,0,0,1-3.759-.436l0.871-5.882a15.762,15.762,0,0,0,1.744.109c1.8,0,3.323-.926,4.2-5.719L388.7,43.269h7.791Zm-3.214-3.486A3.861,3.861,0,0,1,389.3,35.7,4.685,4.685,0,0,1,394.1,30.96a3.917,3.917,0,0,1,4.195,4.085,4.661,4.661,0,0,1-4.958,4.738h-0.054Zm26.8,28.593a22.952,22.952,0,0,1-9.915,2.124c-7.628,0-11.549-4.3-11.549-11.274,0-8.115,5.883-16.556,15.526-16.556,5.394,0,9.261,3.05,9.261,8.006,0,6.753-6.591,9.2-17.269,8.931a5.259,5.259,0,0,0,.816,2.723c1.036,1.362,2.834,2.07,5.121,2.07a16.763,16.763,0,0,0,7.465-1.688ZM416.05,50.621c0-1.307-1.09-2.233-2.888-2.233-3.65,0-5.72,3.05-6.265,5.5,6.1,0.055,9.153-.762,9.153-3.213V50.621ZM427.9,70.964a2.84,2.84,0,0,1-2.913-3.022,3.577,3.577,0,0,1,3.533-3.714,2.935,2.935,0,0,1,3.022,3.131,3.461,3.461,0,0,1-3.605,3.6H427.9Zm6.374-.364,2.258-12.015c0.437-2.257.728-4.187,0.947-5.788h4.625l-0.328,2.949h0.073a7.571,7.571,0,0,1,6.228-3.349c2.914,0,4.588,1.784,4.588,4.878a21.859,21.859,0,0,1-.29,2.986L450.412,70.6h-5.245l1.858-9.866a11.632,11.632,0,0,0,.182-1.966c0-1.274-.438-2.148-1.785-2.148-1.711,0-3.678,2.148-4.443,6.08l-1.457,7.9h-5.244Zm35.4-1.02A15.346,15.346,0,0,1,463.048,71c-5.1,0-7.72-2.876-7.72-7.536,0-5.425,3.933-11.068,10.379-11.068,3.606,0,6.191,2.039,6.191,5.352,0,4.514-4.406,6.153-11.544,5.971a3.514,3.514,0,0,0,.546,1.82,4.115,4.115,0,0,0,3.423,1.383,11.2,11.2,0,0,0,4.99-1.129Zm-2.695-11.869c0-.874-0.728-1.493-1.93-1.493a4.457,4.457,0,0,0-4.189,3.677c4.079,0.037,6.119-.509,6.119-2.148V57.711Zm16.1-9.721-0.91,4.806h3.823l-0.8,4H481.4l-1.2,6.007a13.2,13.2,0,0,0-.292,2.257,1.324,1.324,0,0,0,1.53,1.493,9.264,9.264,0,0,0,1.42-.073L482.278,70.6a10.661,10.661,0,0,1-3.1.4c-3.168,0-4.661-1.6-4.661-3.859a15.013,15.013,0,0,1,.4-3.277l1.348-7.063H474.01l0.729-4h2.3l0.655-3.349ZM74.916,17.609l-1.516.269a25.784,25.784,0,0,0-2.593.637l-0.146-.67-0.962.2a33.546,33.546,0,0,0-3.817,1.124l-0.521-2.165-1,.285c-0.734.2-16.077,4.564-23.723,18.894l0.44,1.444,0.441,1.46C47.394,26.169,60.259,20.9,63.91,19.624l0.065,0.285,0.245,1.008,0.016,0.049,0.146,0.588,0.1,0.4,0.048,0.234,0.1,0.352,0.1,0.47,0.149,0.6,0.162,0.621v0.018l8.414,34.718c-7.648,5.453-14.12,13.34-18.458,19.483-0.407.57-.8,1.107-1.158,1.643l0.376,1.242L54.6,82.6v0.033l0.342,1.159v0.016L55.3,85c0.39-.487.815-1.023,1.288-1.576A131.2,131.2,0,0,1,79.972,62.346l0.554-.4L71.542,21.788c0.325-.1.635-0.184,0.9-0.251l8.9,40.759C69.52,70.954,59.971,79.283,55.129,84.434l1.158,3.576c4.973-5.471,15.58-14.738,27.809-23.615l0.9-.655Zm-20.2,64.857c0.326-.5.684-1.007,1.06-1.56,4.32-6.293,11.2-14.952,19.4-20.607l0.588-.4L66.911,23.434V23.417l-0.148-.639-0.146-.6L66.5,21.739l-0.083-.37L66.39,21.2l2.739-.839,0.1,0.369,0.081,0.436,0.147,0.621L69.6,22.41l8.641,38.628A134.041,134.041,0,0,0,55.857,81.123C55.449,81.594,55.057,82.046,54.715,82.466Zm-17.181-46.1L53.307,88.988m0.844-.407-2.3-.416-15.3-51.488,0.979-.318,0.962-.3ZM16.6,84.357l1.1,0.028c14.959,0.36,27.059,2.087,34.15,3.78l-0.18-.665-0.2-.693-0.114-.446L51.241,85.9l-0.187-.678-0.175-.688a175.407,175.407,0,0,0-32.023-3.467L4.194,42.114c0.254-.093.559-0.2,0.881-0.3l14.268,38.5,0.677,0.013a126.5,126.5,0,0,1,30.822,4.1c0.692,0.189,1.334.39,1.923,0.572l-0.345-1.2-0.01-.015L52.068,82.62l-0.019-.028-0.357-1.268-0.358-1.245c-0.589-.241-1.206-0.462-1.852-0.7-6.925-2.614-16.567-5.452-25.872-5.6l-11.8-33.652-0.01-.014-0.2-.61-0.2-.585-0.174-.446-0.11-.349L11.03,37.9l-0.137-.392-0.2-.573-0.015-.049-0.341-.979-0.1-.274C13.963,34.6,27.5,31.6,39.367,38.968L38.943,37.5l-0.417-1.45C24.423,28.536,9.32,33.708,8.6,33.962L7.619,34.3l0.737,2.1A33.48,33.48,0,0,0,4.58,37.648l-0.907.383,0.24,0.639a25.767,25.767,0,0,0-2.5.959l-1.406.644Zm33.605-2.27a129.044,129.044,0,0,0-29.46-3.842L7.024,41.212l-0.215-.6-0.214-.6L6.427,39.6l-0.118-.361,2.728-.873L9.1,38.526l0.132,0.356,0.143,0.426,0.2,0.584L9.8,40.507,9.809,40.52,22.188,75.873l0.707,0c9.872,0,20.271,3.24,27.265,5.988,0.61,0.244,1.18.457,1.723,0.688C51.371,82.4,50.8,82.243,50.208,82.087Z" transform="translate(0 -16.75)"/>
</svg>
